<svg xmlns="http://www.w3.org/2000/svg" version="1.1" xmlns:xlink="http://www.w3.org/1999/xlink" xmlns:svgjs="http://svgjs.dev/svgjs" viewBox="0 0 1920 1080"><rect width="1920" height="1080" fill="#0f53f0"></rect><g transform="matrix(-2.112515728529184e-16,-1.15,1.15,-2.112515728529184e-16,313.79743957519554,1615.0170555114748)"><path d="M0,-1080C5.572736842402406,-1009.9338133141516,39.252893662728724,-855.3609850822166,33.43642105441444,-659.6028798849095C27.619948446100153,-463.84477468760235,-23.263877761390795,-84.54450184595433,-34.89883564988571,94.54863118384293C-46.53379353838063,273.64176421364016,-33.812978418214264,231.25044249525337,-36.373326276555076,414.95591829387405C-38.93367413489589,598.6613940924947,-51.90906539111844,986.1125780976812,-50.2609227999306,1196.781485975567C-48.612780208742755,1407.4503938534526,-34.86129119608314,1518.4329465571163,-26.48447072942804,1678.9693655611884C-18.107650262772943,1839.5057845652605,-4.414078454904673,2079.828227593531,0,2160L 1920 2160 L 1920 -1080 Z" fill="url(&quot;#SvgjsLinearGradient1220&quot;)"></path><path d="M160,-1080C175.89139280914412,-1002.2331979786705,238.33885200189422,-779.0433902721652,255.34835685486465,-613.3991878720234C272.35786170783507,-447.7549854718816,259.557202858589,-221.32348794806356,262.0570291178225,-86.13478559914898C264.55685537705597,49.05391674976559,266.6530736738589,42.17636914340224,270.3473144102655,197.73302622146406C274.04155514667207,353.2896832995259,296.45795339525097,667.5812389395869,284.2224735362621,847.205156869222C271.98699367727323,1026.8290747988572,210.5506734517606,1139.76253468788,196.93443525633234,1275.476533799275C183.31819706090408,1411.1905329106703,208.6807835730813,1514.0685738374732,202.5250443636926,1661.489151537594C196.36930515430387,1808.9097292377146,167.08750739394875,2076.914858589599,160,2160L 1920 2160 L 1920 -1080 Z" fill="url(&quot;#SvgjsLinearGradient1221&quot;)"></path><path d="M320,-1080C339.60207590704624,-989.3932983328806,452.8509299351073,-705.5313999531585,437.6124554422773,-536.3597899972838C422.3739809494473,-367.18818004140905,266.6024630582798,-208.67664682163155,228.5691530430202,-64.97034026475177C190.53584302776062,78.73596629212801,194.63478884339798,171.82961402535722,209.4125953507197,325.87804934399486C224.1904018580414,479.9264846626325,282.14759099782617,703.5514166411149,317.23599208695055,859.3202716470742C352.3243931760749,1015.0891266530334,408.7242684917315,1125.1750237883027,419.94300188546595,1260.4911793797505C431.1617352792004,1395.8073349711983,401.2055594302683,1521.2990684257193,384.5483924493573,1671.217205195761C367.89122546844635,1821.1353419658026,330.75806540822623,2078.5362008659604,320,2160L 1920 2160 L 1920 -1080 Z" fill="url(&quot;#SvgjsLinearGradient1222&quot;)"></path><path d="M480,-1080C490.6334551177579,-1011.0867066868641,523.0706495488414,-782.1133467005741,543.8007307065473,-666.5202401211848C564.5308118642531,-550.9271335417955,594.7297468325179,-513.7413121351967,604.3804869462352,-386.44136052366446C614.0312270599526,-259.1414089121322,638.166588455976,-39.63636355645886,601.7051713888513,97.27946954800893C565.2437543217267,234.19530265247673,413.88334134437946,307.75649983770285,385.6119845434871,435.0536381031423C357.34062774259473,562.3507763685818,398.48369215849567,694.9393159653297,432.0770305834971,861.0622991406457C465.67036900849854,1027.1852823159616,587.8940289251345,1272.163868246666,587.1720150934957,1431.791537155038C586.4500012618569,1591.41920606341,445.60695010924655,1697.4602354500507,427.74494759366394,1818.8283125908777C409.8829450780813,1940.1963897317046,471.29082459894397,2103.1380520984794,480,2160L 1920 2160 L 1920 -1080 Z" fill="url(&quot;#SvgjsLinearGradient1223&quot;)"></path><path d="M640,-1080C655.91232684829,-982.8142043302295,720.5867404445104,-667.9121537784039,735.4739610897401,-496.88522598137655C750.3611817349698,-325.8582981843492,731.2618131717329,-214.89626256378108,729.3233238713784,-53.838433217835984C727.3848345710239,107.21939612810911,735.1272058883499,286.7181956995581,723.8430252876133,469.461750094294C712.5588446868767,652.2053044890299,678.0760472231535,854.4829617647162,661.618240266959,1042.6228931505793C645.1604333107645,1230.7628245364426,628.699223594939,1412.0718206012366,625.0961835504459,1598.3013384094734C621.4931435059527,1784.5308562177102,637.516030591741,2066.383556401579,640,2160L 1920 2160 L 1920 -1080 Z" fill="url(&quot;#SvgjsLinearGradient1224&quot;)"></path><path d="M800,-1080C789.5273597165724,-1002.3817543120913,745.4860338009939,-739.0578582723449,737.1641582994346,-614.2905258725475C728.8422827978752,-489.52319347275017,724.8808721741399,-450.9908030187417,750.0687469906441,-331.3960056012159C775.2566218071482,-211.8012081836901,874.2137531752037,-37.88257896050834,888.2914071984596,103.27825863260728C902.3690612217156,244.4390962257229,869.693322252526,359.18858513258976,834.5346711301798,515.5690199574778C799.3760200078337,671.9494547823659,665.1637652333109,922.9354636824685,677.3395004643833,1041.560867581936C689.5152356954557,1160.1862714814035,870.2306520632108,1094.565000630075,907.5890825166139,1227.321443354283C944.947512970017,1360.077886078491,919.4215969375706,1682.6530978195642,901.4900831848016,1838.0995239271838C883.5585694320326,1993.5459500348034,816.9150138641336,2106.3499206545307,800,2160L 1920 2160 L 1920 -1080 Z" fill="url(&quot;#SvgjsLinearGradient1225&quot;)"></path><path d="M960,-1080C977.3618680062901,-1008.6230646874916,1076.4677127276059,-823.9514184481261,1064.1712080377406,-651.7383881249496C1051.8747033478753,-479.525357801773,898.3668315177486,-243.5965089927826,886.2209718608085,-46.72181806094039C874.0751122038685,150.1528728709018,998.2306402765794,335.4045613531655,991.2960500961001,529.5097574661036C984.3614599156208,723.6149535790416,854.9699075584791,940.8864555749045,844.6134307779324,1117.9093586166882C834.2569539973857,1294.9322616584718,909.9260945424754,1417.9654021529204,929.15718941282,1591.6471757168058C948.3882842831646,1765.3289492806912,954.8595315688033,2065.274529286134,960,2160L 1920 2160 L 1920 -1080 Z" fill="url(&quot;#SvgjsLinearGradient1226&quot;)"></path><path d="M1120,-1080C1110.6822570226032,-985.1707653993925,1074.2637578598913,-733.389413913835,1064.0935421356194,-511.024592396355C1053.9233264113475,-288.65977087887495,1040.7913982631787,31.409138174930632,1058.9787056543687,254.1889291048803C1077.1660130455587,476.96872003482997,1179.0095232596018,629.466645502135,1173.2173864827587,825.654153183343C1167.4252497059156,1021.8416608645512,1033.0954494071027,1208.9230007226859,1024.2258849933096,1431.3139751921287C1015.3563205795165,1653.7049496615716,1104.037647498885,2038.552329198688,1120,2160L 1920 2160 L 1920 -1080 Z" fill="url(&quot;#SvgjsLinearGradient1227&quot;)"></path><path d="M1280,-1080C1300.212927665559,-1008.9679451712384,1400.3728461737899,-826.0105464146798,1401.277565993354,-653.8076710274302C1402.1822858129183,-481.60479564018055,1298.8281679002544,-210.8115979785694,1285.4283189173857,-46.78274767650231C1272.028469934517,117.24610262556479,1308.2305648454799,190.37178188849552,1320.8784720961428,330.36543078497243C1333.5263793468057,470.3590796814493,1387.8357080573765,621.738211317117,1361.3157624213636,793.1791457023592C1334.7958167853508,964.6200800876013,1158.710025156199,1205.0093716500164,1161.7587982800662,1359.0110370964253C1164.8075714039335,1513.0127025428342,1359.9015342112448,1583.6909778968839,1379.608401164567,1717.189138380813C1399.3152681178894,1850.687298864742,1296.6014001940946,2086.1981897301357,1280,2160L 1920 2160 L 1920 -1080 Z" fill="url(&quot;#SvgjsLinearGradient1228&quot;)"></path><path d="M1440,-1080C1432.4198868820172,-955.8943179396338,1389.2092973886606,-548.033057886799,1394.519321292103,-335.36590763780254C1399.8293451955456,-122.698757388806,1461.6368546206872,-0.6341815481725064,1471.860143420655,196.00290149397915C1482.0834322206229,392.6399845361308,1481.4324452157962,630.5365409058826,1455.8590540919095,844.4565906151074C1430.2856629680227,1058.3766403243321,1321.0629723593202,1260.2659648518459,1318.4197966773352,1479.523199749328C1315.7766209953502,1698.78043464681,1419.7366327795557,2046.5871999582214,1440,2160L 1920 2160 L 1920 -1080 Z" fill="url(&quot;#SvgjsLinearGradient1229&quot;)"></path><path d="M1600,-1080C1603.2749527508422,-1006.9669331630571,1619.7714737797367,-775.6327952108778,1619.6497165050532,-641.8015989783423C1619.5279592303698,-507.97040274580684,1586.0199462212024,-439.61548304729047,1599.2694563518999,-277.0128226047869C1612.5189664825973,-114.41016216228334,1716.2579994213334,174.71744880814896,1699.1467772892377,333.8143636766791C1682.035555157142,492.9112785452092,1510.7463134773159,538.8619058983957,1496.6021235593255,677.5686666063939C1482.457933641335,816.2754273143921,1582.5032004791774,1003.0612358800331,1614.2816377812956,1166.0549279246684C1646.0600750834137,1329.0486199693037,1689.653020335583,1489.87330686165,1687.2727473720338,1655.5308188742054C1684.8924744084845,1821.1883308867607,1614.545457895339,2075.921803145701,1600,2160L 1920 2160 L 1920 -1080 Z" fill="url(&quot;#SvgjsLinearGradient1230&quot;)"></path><path d="M1760,-1080C1761.8768970703322,-1007.7808434396657,1760.2820080342135,-785.3352212752334,1771.261382421994,-646.685060637994C1782.2407568097747,-508.03490000075453,1807.3313361375988,-390.82512420252374,1825.8762463266833,-248.0990361765634C1844.4211565157677,-105.37294815060304,1888.7569593054911,91.09055721337224,1882.5308435565007,209.67146751776824C1876.3047278075103,328.25237782216425,1806.704526740696,324.3963046270742,1788.5195518327407,463.38642564981257C1770.3345769247853,602.376546672551,1799.2303215182499,894.9888975366905,1773.4209941087686,1043.6121936541986C1747.6116666992873,1192.2354897717066,1630.6408417570337,1244.0614139120587,1633.663587375853,1355.126202354861C1636.6863329946723,1466.1909907976635,1770.5013990509929,1575.8552913701562,1791.557467821684,1710.0009243110128C1812.613536592375,1844.1465572518694,1765.2595779702806,2085.0001540518356,1760,2160L 1920 2160 L 1920 -1080 Z" fill="url(&quot;#SvgjsLinearGradient1231&quot;)"></path></g><defs><linearGradient x1="0.1" y1="0" x2="0" y2="1" id="SvgjsLinearGradient1220"><stop stop-color="#0f53f0" offset="0"></stop><stop stop-color="#0f79f0" offset="0"></stop></linearGradient><linearGradient x1="0.1" y1="0" x2="0" y2="1" id="SvgjsLinearGradient1221"><stop stop-color="#2a67f2" offset="0"></stop><stop stop-color="#2a88f2" offset="0.08333333333333333"></stop></linearGradient><linearGradient x1="0.1" y1="0" x2="0" y2="1" id="SvgjsLinearGradient1222"><stop stop-color="#467af3" offset="0"></stop><stop stop-color="#4697f3" offset="0.16666666666666666"></stop></linearGradient><linearGradient x1="0.1" y1="0" x2="0" y2="1" id="SvgjsLinearGradient1223"><stop stop-color="#618ef5" offset="0"></stop><stop stop-color="#61a7f5" offset="0.25"></stop></linearGradient><linearGradient x1="0.1" y1="0" x2="0" y2="1" id="SvgjsLinearGradient1224"><stop stop-color="#7ca1f7" offset="0"></stop><stop stop-color="#7cb5f7" offset="0.3333333333333333"></stop></linearGradient><linearGradient x1="0.1" y1="0" x2="0" y2="1" id="SvgjsLinearGradient1225"><stop stop-color="#98b5f9" offset="0"></stop><stop stop-color="#98c5f9" offset="0.4166666666666667"></stop></linearGradient><linearGradient x1="0.1" y1="0" x2="0" y2="1" id="SvgjsLinearGradient1226"><stop stop-color="#b3c9fa" offset="0"></stop><stop stop-color="#b3d5fa" offset="0.5"></stop></linearGradient><linearGradient x1="0.1" y1="0" x2="0" y2="1" id="SvgjsLinearGradient1227"><stop stop-color="#cfdcfc" offset="0"></stop><stop stop-color="#cfe4fc" offset="0.5833333333333334"></stop></linearGradient><linearGradient x1="0.1" y1="0" x2="0" y2="1" id="SvgjsLinearGradient1228"><stop stop-color="#eaf0fe" offset="0"></stop><stop stop-color="#eaf3fe" offset="0.6666666666666666"></stop></linearGradient><linearGradient x1="0.1" y1="0" x2="0" y2="1" id="SvgjsLinearGradient1229"><stop stop-color="#ffffff" offset="0"></stop><stop stop-color="#ffffff" offset="0.75"></stop></linearGradient><linearGradient x1="0.1" y1="0" x2="0" y2="1" id="SvgjsLinearGradient1230"><stop stop-color="#ffffff" offset="0"></stop><stop stop-color="#ffffff" offset="0.8333333333333334"></stop></linearGradient><linearGradient x1="0.1" y1="0" x2="0" y2="1" id="SvgjsLinearGradient1231"><stop stop-color="#ffffff" offset="0"></stop><stop stop-color="#ffffff" offset="0.9166666666666666"></stop></linearGradient></defs></svg>